<?xml version="1.0" standalone="no"?>
<!DOCTYPE svg PUBLIC "-//W3C//DTD SVG 20010904//EN"
 "http://www.w3.org/TR/2001/REC-SVG-20010904/DTD/svg10.dtd">
<svg version="1.0" xmlns="http://www.w3.org/2000/svg"
 width="512.000000pt" height="512.000000pt" viewBox="0 0 512.000000 512.000000"
 preserveAspectRatio="xMidYMid meet">

<g transform="translate(0.000000,512.000000) scale(0.100000,-0.100000)"
fill="#000000" stroke="none">
<path d="M2210 4814 c-830 -90 -1548 -487 -1927 -1066 -329 -502 -371 -1094
-112 -1610 348 -697 1125 -1171 2079 -1268 153 -16 452 -16 626 0 l141 13 104
-80 c136 -105 366 -256 504 -331 267 -145 620 -274 865 -317 69 -13 79 -12
117 5 58 26 85 71 80 132 -4 52 -8 58 -140 230 -103 133 -192 276 -267 427
-56 111 -140 305 -140 321 0 5 38 33 84 64 180 120 367 288 491 441 436 539
523 1174 240 1763 -333 693 -1114 1178 -2059 1277 -177 18 -512 18 -686 -1z
m602 -715 c614 -122 1051 -678 1025 -1304 -11 -274 -91 -498 -253 -715 -196
-262 -478 -437 -799 -495 -133 -24 -344 -22 -472 4 -606 125 -1032 644 -1033
1259 0 383 173 744 475 988 303 246 677 338 1057 263z"/>
<path d="M2440 3543 c-14 -2 -54 -13 -90 -24 -309 -97 -515 -391 -497 -709 16
-287 206 -541 474 -635 114 -40 286 -46 412 -15 227 56 420 241 499 478 22 66
26 95 26 202 0 108 -3 136 -27 210 -37 118 -88 201 -183 296 -67 68 -96 89
-175 127 -52 25 -126 52 -166 61 -66 15 -211 19 -273 9z"/>
</g>
</svg>
